<svg xmlns="http://www.w3.org/2000/svg" version="1.1" xmlns:xlink="http://www.w3.org/1999/xlink" xmlns:svgjs="http://svgjs.com/svgjs" width="512" height="512" x="0" y="0" viewBox="0 0 50 50" style="enable-background:new 0 0 512 512" xml:space="preserve" class=""><g><path fill="#4c5671" d="m41.263 33.386-6.01 3.491c.002-.635-.444-1.41-.998-1.73l-7.564-4.367c-.279-.16-.53-.177-.713-.07l6.008-3.491c.183-.107.434-.092.713.07l7.564 4.367c.554.32 1 1.093 1 1.73z" data-original="#4c5671" class=""></path><path fill="#373f51" d="M34.255 35.147c.554.32 1 1.094.998 1.73l-9.568-5.524c.002-.636.452-.893 1.006-.573z" data-original="#373f51" class=""></path><path fill="#b4bed7" d="m48.956 34.86-.009 2.541c0 .398-.141.671-.362.803l-1.244.724c.22-.132.362-.406.362-.803l.009-2.54z" data-original="#b4bed7" class=""></path><path fill="#b4bed7" d="m19.713 19.423 1.244-.723 27.998 16.165-1.244.722z" data-original="#b4bed7" class=""></path><path fill="#959399" d="m47.711 35.587-.007 2.538c-.002.79-.562 1.115-1.255.715L20.952 24.12c-.693-.401-1.248-1.37-1.246-2.16l.007-2.537z" data-original="#d3dbea" class=""></path><path fill="#4c5671" d="m49 18.052-.044 16.808-1.244.724.044-16.809c0-.794-.556-1.764-1.244-2.161l-25.5-14.718c-.353-.203-.662-.22-.891-.088l1.244-.723c.23-.133.538-.115.891.088l25.5 14.717c.688.397 1.244 1.368 1.244 2.162z" data-original="#4c5671" class=""></path><path fill="#373f51" d="M46.508 16.614c.693.4 1.25 1.363 1.247 2.16l-.044 16.813-27.998-16.164.044-16.814c.002-.797.562-1.116 1.255-.716z" data-original="#373f51" class=""></path><path fill="#4800a9" d="m20.64 2.697-.044 17.234 26.237 15.147.042-17.233z" data-original="#fe91ab" class=""></path><path fill="#9da9c1" d="m42.178 34.401-.002.739-1.364-.788.002-.738zM44.167 35.55l-.002.738-1.364-.787.002-.739zM46.156 36.698l-.002.738-1.364-.787.002-.738zM1 32.113l.003.99c0 .058.02.1.055.119l27.13 15.767c-.035-.022-.056-.064-.056-.122l-.003-.99c0-.054.021-.113.05-.168L1.051 31.943a.376.376 0 0 0-.051.17z" data-original="#9da9c1" class=""></path><path fill="#b4bed7" d="m33.54 44.536 2.74 1.592-.743-1.32-1.228-.713 3.098-1.79c.053-.03.1-.032.135-.014l-27.13-15.764c-.034-.021-.081-.016-.134.013l-9.09 5.248a.391.391 0 0 0-.138.155L28.18 47.709a.38.38 0 0 1 .137-.154z" data-original="#b4bed7" class=""></path><path fill="#4c5671" d="M37.407 42.306c.103-.06.188-.014.188.107l.003.99a.413.413 0 0 1-.187.323l-.5.289.005 1.745-.638.368-.74-1.32-7.218 4.167c-.103.059-.187.01-.188-.107l-.003-.99a.41.41 0 0 1 .187-.324zM10.896 28.29l-1.166.678-1.236-.713 1.166-.678zM12.562 29.252l-1.166.678-1.236-.714 1.166-.677zM14.228 30.214l-1.166.678-1.238-.715 1.166-.678zM15.894 31.176l-1.166.677-1.245-.718 1.166-.678zM10.047 29.503l-1.166.678-1.857-1.072 1.166-.678zM11.713 30.465l-1.166.678-1.242-.718 1.166-.677zM13.379 31.427l-1.166.678-1.242-.718 1.166-.677zM15.045 32.389l-1.166.677-1.242-.717 1.166-.677zM17.56 32.138l-1.166.677-1.245-.718 1.166-.678zM16.71 33.35l-1.165.678-1.245-.718 1.166-.678zM9.622 30.96l-1.166.678-2.902-1.675 1.166-.678zM11.288 31.923l-1.166.677-1.242-.717 1.165-.678zM12.954 32.885l-1.166.677-1.245-.718 1.166-.678zM14.62 33.846l-1.166.678-1.245-.719 1.166-.677zM8.573 32.06l-1.164.677-3.325-1.92 1.164-.676zM10.237 33.022l-1.164.676-1.235-.714L9 32.308zM11.82 33.936l-1.163.676-1.242-.717 1.164-.676zM13.403 34.85l-1.164.675-1.242-.717 1.163-.676zM19.224 33.098l-1.166.678-1.243-.717 1.166-.678zM18.377 34.313l-1.166.677-1.245-.719 1.166-.677zM16.283 34.807l-1.166.677-1.242-.717 1.166-.677zM14.982 35.761l-1.164.676-1.242-.717 1.164-.676zM20.89 34.06l-1.166.678-1.243-.717 1.166-.678zM22.555 35.022l-1.166.678-1.242-.718 1.166-.677zM24.221 35.984l-1.166.677-1.242-.717 1.166-.677zM25.887 36.946l-1.166.677-1.242-.717 1.166-.677zM27.553 37.908l-1.166.677-1.242-.717 1.166-.678zM20.04 35.273l-1.165.678-1.243-.718 1.166-.677zM21.707 36.235l-1.166.678-1.243-.718 1.166-.677zM26.083 38.762l-1.165.677-3.954-2.282 1.166-.677zM17.95 35.769l-1.166.677-1.243-.717 1.166-.677zM19.615 36.73l-1.165.678-1.243-.717 1.166-.678zM21.281 37.693l-1.165.677-1.243-.717 1.166-.678zM24.613 39.616l-1.166.678-2.908-1.68 1.166-.677zM21.475 39.51l-1.164.676-1.242-.717 1.164-.676zM16.564 36.674l-1.164.676-1.244-.718 1.163-.676zM18.143 37.586l-1.164.676-1.242-.717 1.164-.676zM5.013 31.709l-1.163.676-1.242-.717 1.163-.677zM6.68 32.67l-1.164.677-1.242-.717 1.163-.677zM8.345 33.632l-1.163.677-1.243-.718 1.164-.676zM15.078 37.52l-1.163.676-6.312-3.644 1.164-.676zM16.673 38.44l-1.163.677-1.243-.718 1.164-.676zM18.34 39.402l-1.164.676-1.243-.717 1.164-.676zM20.005 40.364l-1.164.676-1.242-.717 1.164-.676zM21.671 41.326l-1.164.676-1.242-.717 1.164-.676zM29.175 42.25l-1.166.677-1.244-.718 1.165-.678zM30.45 39.58l-1.167.677-1.244-.719 1.166-.677zM28.979 40.434l-1.166.677-1.244-.718 1.166-.678zM27.509 41.288l-1.166.677-1.244-.718 1.165-.677zM26.037 42.144l-1.164.676-1.244-.719 1.163-.676zM32.115 40.541l-1.166.678-1.244-.719 1.166-.677zM30.645 41.395l-1.166.678-1.244-.718 1.166-.678zM27.703 43.105l-1.164.677-1.244-.719 1.163-.676zM26.233 43.96l-1.164.676-2.91-1.68 1.163-.677zM33.772 41.498l-1.166.677-1.235-.713 1.166-.677zM35.438 42.46l-1.166.677-1.235-.713 1.166-.678zM32.302 42.352l-1.166.678-1.235-.714 1.166-.677zM30.832 43.207l-1.166.677-1.235-.713 1.165-.678zM29.36 44.062l-1.164.676-1.235-.713 1.163-.676zM27.89 44.916l-1.164.677-1.235-.714 1.163-.676zM33.968 43.314l-1.166.678-1.235-.714 1.165-.677zM32.498 44.168l-1.166.678-1.235-.713 1.165-.678zM31.026 45.024l-2.634 1.53-1.236-.713 2.634-1.53zM37.836 40.257c.131.227-.062.362-.208.118-.261-.453-.897-1.03-1.344-.776-.074.035-.165-.05-.207-.12-.056-.098-.055-.206 0-.238.614-.34 1.406.404 1.76 1.016zM38.667 39.556c.055.096.055.203-.001.235-.072.04-.167-.047-.207-.12-.6-1.035-1.968-2.314-2.999-1.731-.073.041-.165-.047-.207-.12-.056-.096-.055-.203 0-.235 1.174-.668 2.732.791 3.414 1.97z" data-original="#4c5671" class=""></path><path fill="#4c5671" d="M38.25 39.904c.059.1.058.205 0 .238-.07.04-.165-.049-.206-.118-.437-.758-1.43-1.68-2.17-1.254-.072.042-.166-.047-.208-.12-.058-.1-.058-.204 0-.238.89-.506 2.068.598 2.584 1.492zM36.956 40.233c.239.138.434.472.433.751 0 .275-.197.387-.436.25a.954.954 0 0 1-.434-.752c0-.28.194-.39.437-.25z" data-original="#4c5671" class=""></path></g></svg>