<svg xmlns="http://www.w3.org/2000/svg" version="1.1" xmlns:xlink="http://www.w3.org/1999/xlink" xmlns:svgjs="http://svgjs.com/svgjs" width="512" height="512" x="0" y="0" viewBox="0 0 32 32" style="enable-background:new 0 0 512 512" xml:space="preserve" class=""><g><path d="m28.9 24-5.4-5.4c-.4-.4-1-.4-1.4 0l-1.3-1.3c5.3-8.5-5.1-20-14.7-13-10.1 8 .7 22.7 11.2 16.4l1.4 1.4c-.4.4-.5 1-.1 1.4l5.5 5.5c1.4 1.3 3.6 1.3 5-.1 1.2-1.4 1.2-3.6-.2-4.9zM7.3 5.8c8.6-6.3 18.1 6.1 9.7 12.7-8.6 6.3-18.1-6.1-9.7-12.7zm11.6 13.7.7-.7 1.1 1.1-.7.7zm8.7 8c-.6.6-1.5.6-2.1.1l-.1-.1-4.7-4.7 2.1-2.1 4.7 4.7c.6.6.6 1.5.1 2.1z" fill="#656565" data-original="#000000"></path></g></svg>