<svg xmlns="http://www.w3.org/2000/svg" version="1.1" xmlns:xlink="http://www.w3.org/1999/xlink" xmlns:svgjs="http://svgjs.com/svgjs" width="512" height="512" x="0" y="0" viewBox="0 0 64 64" style="enable-background:new 0 0 512 512" xml:space="preserve" class=""><g><path d="M15.4 62c-1 0-2-.2-2.9-.7-2.4-1.1-3.8-3.4-3.8-6.1V8.7c0-3.7 3-6.7 6.7-6.7h33.2c3.7 0 6.7 3 6.7 6.7v46.6c0 2.6-1.5 4.9-3.8 6.1-2.4 1.1-5.1.8-7.1-.9l-10.7-8.7c-1-.8-2.4-.8-3.4 0l-10.7 8.7c-1.2 1-2.7 1.5-4.2 1.5zM32 47.1c1.5 0 3 .5 4.2 1.5l10.7 8.7c.8.7 1.9.8 2.9.4 1-.5 1.5-1.4 1.5-2.4V8.7c0-1.5-1.2-2.7-2.7-2.7H15.4c-1.5 0-2.7 1.2-2.7 2.7v46.6c0 1.1.6 2 1.5 2.4 1 .5 2 .3 2.9-.4l10.7-8.7c1.2-.9 2.7-1.5 4.2-1.5z" fill="#959595" data-original="#000000" class=""></path></g></svg>